<svg width="20" height="21" viewBox="0 0 20 21" fill="none" xmlns="http://www.w3.org/2000/svg">
<path d="M18.3333 7.94449V14.7295C18.3333 15.4213 18.0687 16.0868 17.5936 16.5897C17.1185 17.0925 16.469 17.3945 15.7783 17.4337L15.625 17.4378H4.37496C3.68318 17.4379 3.0176 17.1732 2.51477 16.6981C2.01193 16.223 1.70996 15.5735 1.67079 14.8828L1.66663 14.7295V7.94449L9.70996 12.1578C9.79944 12.2047 9.89895 12.2292 9.99996 12.2292C10.101 12.2292 10.2005 12.2047 10.29 12.1578L18.3333 7.94449ZM4.37496 4.10449H15.625C16.2963 4.10441 16.9437 4.35366 17.4417 4.80388C17.9396 5.25411 18.2526 5.87323 18.32 6.54116L9.99996 10.8995L1.67996 6.54116C1.74456 5.89975 2.03583 5.30242 2.50142 4.85654C2.967 4.41067 3.57636 4.14548 4.21996 4.10866L4.37496 4.10449Z" fill="#18E2CE"/>
</svg>
