<svg width="20" height="21" viewBox="0 0 20 21" fill="none" xmlns="http://www.w3.org/2000/svg">
<path d="M15.4167 17.0212H4.58337L2.08337 19.5212V5.35449C2.08337 3.97949 3.20837 2.85449 4.58337 2.85449H15.4167C16.7917 2.85449 17.9167 3.97949 17.9167 5.35449V14.5212C17.9167 15.8962 16.7917 17.0212 15.4167 17.0212Z" fill="#FFB838"/>
<path d="M10 11.1885C10.6904 11.1885 11.25 10.6288 11.25 9.93848C11.25 9.24812 10.6904 8.68848 10 8.68848C9.30964 8.68848 8.75 9.24812 8.75 9.93848C8.75 10.6288 9.30964 11.1885 10 11.1885Z" fill="white"/>
<path d="M14.1667 11.1885C14.8571 11.1885 15.4167 10.6288 15.4167 9.93848C15.4167 9.24812 14.8571 8.68848 14.1667 8.68848C13.4764 8.68848 12.9167 9.24812 12.9167 9.93848C12.9167 10.6288 13.4764 11.1885 14.1667 11.1885Z" fill="white"/>
<path d="M5.83337 11.1885C6.52373 11.1885 7.08337 10.6288 7.08337 9.93848C7.08337 9.24812 6.52373 8.68848 5.83337 8.68848C5.14302 8.68848 4.58337 9.24812 4.58337 9.93848C4.58337 10.6288 5.14302 11.1885 5.83337 11.1885Z" fill="white"/>
</svg>
