<svg width="42" height="38" viewBox="0 0 42 38" fill="none" xmlns="http://www.w3.org/2000/svg">
<g clip-path="url(#clip0_2184_237)">
<path d="M33.0189 0.228516H5.5642C2.64072 0.228516 0.270508 2.59516 0.270508 5.51423V32.6169V36.2598C0.270508 37.1004 1.27119 37.5408 1.89341 36.9739L5.83682 33.3711C6.36763 32.8859 7.06042 32.6185 7.77886 32.6185H36.3128C39.1786 32.6185 41.5007 30.2999 41.5007 27.4385V8.69751C41.4991 4.02027 37.7016 0.228516 33.0189 0.228516Z" fill="#EB2D2D"/>
</g>
<path d="M21.536 17.7245H19.968C19.76 16.4445 19.616 14.3005 19.616 12.2205V9.53252H21.92V12.2205C21.92 14.3485 21.76 16.4925 21.536 17.7245ZM20.768 21.4365C20.048 21.4365 19.456 20.8605 19.456 20.1725C19.456 19.4685 20.048 18.8925 20.768 18.8925C21.456 18.8925 22.048 19.4685 22.048 20.1725C22.048 20.8605 21.456 21.4365 20.768 21.4365Z" fill="white"/>
<defs>
<clipPath id="clip0_2184_237">
<rect width="41.2286" height="37" fill="white" transform="translate(0.270508 0.228516)"/>
</clipPath>
</defs>
</svg>
