<svg width="117" height="42" viewBox="0 0 117 42" fill="none" xmlns="http://www.w3.org/2000/svg">
<g clip-path="url(#clip0_1053_35174)">
<path fill-rule="evenodd" clip-rule="evenodd" d="M6.34683 0.150394H36.6598C37.8903 0.149361 39.109 0.393866 40.2461 0.869932C41.3832 1.346 42.4166 2.04429 43.287 2.9249C44.1575 3.80552 44.848 4.85118 45.3192 6.00214C45.7903 7.15309 46.0328 8.38677 46.0328 9.63266V30.6141C46.0328 31.3765 45.8844 32.1314 45.5961 32.8357C45.3078 33.5399 44.8852 34.1798 44.3526 34.7186C43.8199 35.2575 43.1876 35.6847 42.4917 35.976C41.7959 36.2672 41.0502 36.4168 40.2972 36.4161H8.77869C7.99217 36.4144 7.23283 36.7073 6.64693 37.2386L2.29285 41.2751C2.1404 41.416 1.951 41.5092 1.74745 41.5436C1.54389 41.5781 1.33484 41.5522 1.14545 41.4692C0.956055 41.3862 0.794382 41.2496 0.679876 41.0757C0.565369 40.9019 0.502906 40.6982 0.5 40.4893V6.07026C0.5 4.50021 1.116 2.99447 2.2125 1.88428C3.30899 0.774092 4.79615 0.150394 6.34683 0.150394ZM7.14106 8.77608V29.4327H12.2532V17.5563C12.2532 14.1616 14.2245 12.5506 16.6512 12.5506C19.0779 12.5506 20.6302 14.1197 20.6302 17.0456V29.4327H25.7552V17.5563C25.7552 14.1197 27.6412 12.5087 30.1118 12.5087C32.5411 12.5087 34.1322 14.0778 34.1322 17.0901V29.4196H39.1899V15.7175C39.1899 10.8821 36.1113 7.82785 30.3085 7.82785C27.1651 7.82785 24.6065 9.4676 23.5587 11.8853C22.4696 9.4676 20.8035 7.89072 17.6602 7.84095C15.3525 7.80428 13.1017 8.4958 11.8573 10.0072C11.6167 10.3084 11.3373 10.4473 10.8846 10.0072L8.79163 8.04526C8.65127 7.91385 8.47612 7.82671 8.28761 7.79453C8.0991 7.76235 7.90542 7.78652 7.73026 7.86407C7.55511 7.94162 7.40609 8.0692 7.30144 8.23118C7.19679 8.39316 7.14106 8.58252 7.14106 8.77608Z" fill="#008DF0"/>
<path d="M58.425 16.8545V13.9339L64.96 7.84638H54.3943V3.87012H70.5196V7.45871L64.3339 13.2214C68.2145 14.0072 71.2492 16.8886 71.2492 21.4202C71.2492 26.6983 67.1823 30.0406 62.0391 30.0406C57.0693 30.0406 53.212 26.9445 53.212 21.3966H57.5919C57.5919 24.3539 59.4029 26.0408 62.109 26.0408C64.8901 26.0408 66.7295 24.2072 66.7295 21.3625C66.7295 18.7588 65.0634 16.8598 61.5191 16.8598L58.425 16.8545Z" fill="#008DF0"/>
<path d="M83.4137 3.87012H88.487L82.4047 12.0689C83.0282 11.8873 83.6731 11.7922 84.3217 11.786C89.571 11.786 93.1179 15.516 93.1179 20.7234C93.1179 26.2242 89.0846 30.0485 83.6646 30.0485C78.1748 30.0485 74.0743 25.9675 74.0743 20.6893C74.0743 17.5932 75.0807 15.3405 77.929 11.435L83.4137 3.87012ZM83.6569 26.0356C86.5415 26.0356 88.6267 23.8562 88.6267 20.7234C88.6267 17.5906 86.5751 15.4846 83.6569 15.4846C80.6326 15.4846 78.6172 17.6299 78.6172 20.7234C78.6172 23.8169 80.6688 26.0356 83.6569 26.0356Z" fill="#008DF0"/>
<path d="M105.727 3.37793C112.226 3.37793 116.5 8.79487 116.5 16.7841C116.5 24.734 112.469 30.0488 105.727 30.0488C98.9854 30.0488 94.9883 24.734 94.9883 16.7841C94.9883 8.79487 99.2286 3.37793 105.727 3.37793ZM105.727 26.0725C109.758 26.0725 112.12 22.7301 112.12 16.7841C112.12 10.6966 109.758 7.35419 105.727 7.35419C101.697 7.35419 99.3657 10.6966 99.3657 16.7841C99.3657 22.7301 101.73 26.0725 105.727 26.0725Z" fill="#008DF0"/>
</g>
<defs>
<clipPath id="clip0_1053_35174">
<rect width="116" height="41.4286" fill="white" transform="translate(0.5 0.150391)"/>
</clipPath>
</defs>
</svg>
